<svg width="1500" height="754" viewBox="0 0 1527 754" fill="none" xmlns="http://www.w3.org/2000/svg">
<rect width="1526.88" height="753.153" fill="#007BFF"/>
<path fill-rule="evenodd" clip-rule="evenodd" d="M427.784 461.946C451.347 441.07 466.2 410.582 466.2 376.625C466.2 313.691 415.181 262.672 352.246 262.672C289.312 262.672 238.293 313.691 238.293 376.625C238.293 439.56 289.312 490.579 352.246 490.579C358.527 490.579 364.689 490.071 370.694 489.093L354.163 455.73L347.694 441.857L326.174 421.865L312.277 392.064L286.51 369.674L287.454 362.978L294.476 361.268L321.338 385.336L336.193 417.193L358.484 436.825L383.927 417.541L399.392 392.415L399.741 370.358L405.705 356.317L416.495 351.285L418.891 356.424L411.728 372.588L411.122 394.764L396.764 418.975L403.263 432.912L427.784 461.946ZM369.994 372.969L381.653 382.546L385.611 376.947L371.594 346.888L362.512 307.96L354.773 303.437L350.062 308.762L360.29 352.159L369.994 372.969ZM347.956 367.294L337.786 358.9L316.821 313.941L319.803 306.92L327.097 309.149L352.016 362.586L347.956 367.294ZM297.307 341.181L321.24 370.369L334.954 378.987L337.936 371.966L306.249 334.196L299.022 334.126L297.307 341.181Z" fill="#ECECEC"/>
<path d="M549.971 434.4V308.529H572.296V359.147H623.107V308.529H645.625V434.4H623.107V378.586H572.296V434.4H549.971ZM716.083 436.71C707.358 436.71 699.467 434.785 692.41 430.936C685.353 426.958 679.772 421.313 675.666 413.999C671.56 406.557 669.507 397.64 669.507 387.247C669.507 376.982 671.56 368.193 675.666 360.879C679.9 353.437 685.353 347.728 692.025 343.75C698.697 339.644 705.69 337.591 713.004 337.591C721.472 337.591 728.594 339.516 734.367 343.365C740.27 347.086 744.696 352.347 747.647 359.147C750.599 365.819 752.074 373.582 752.074 382.435C752.074 384.488 751.946 386.541 751.689 388.594C751.561 390.519 751.368 392.058 751.112 393.213H686.444L686.059 378.201H733.02C733.02 370.759 731.352 364.985 728.016 360.879C724.808 356.773 719.997 354.72 713.581 354.72C709.732 354.72 706.011 355.811 702.418 357.992C698.826 360.045 695.811 363.445 693.373 368.193C691.063 372.94 689.972 379.227 690.101 387.054C690.357 394.753 691.833 401.04 694.527 405.916C697.222 410.663 700.686 414.128 704.92 416.309C709.283 418.49 713.966 419.581 718.97 419.581C723.076 419.581 726.925 419.003 730.518 417.849C734.239 416.694 737.768 415.09 741.104 413.037L748.417 426.509C744.055 429.589 739.051 432.091 733.405 434.015C727.888 435.812 722.114 436.71 716.083 436.71ZM794.769 436.325C789.509 436.325 785.275 435.299 782.067 433.246C778.987 431.064 776.742 427.985 775.331 424.007C773.919 420.03 773.214 415.282 773.214 409.765V298.521H795.347V410.92C795.347 413.614 795.86 415.539 796.887 416.694C797.913 417.72 799.068 418.233 800.351 418.233C800.864 418.233 801.313 418.233 801.698 418.233C802.211 418.105 802.853 417.977 803.623 417.849L806.317 434.4C805.163 435.042 803.559 435.491 801.506 435.748C799.581 436.133 797.336 436.325 794.769 436.325ZM825.464 471.738V339.901H843.748L845.288 349.909H846.058C850.036 346.444 854.462 343.557 859.338 341.248C864.214 338.81 869.282 337.591 874.543 337.591C882.37 337.591 889.042 339.58 894.559 343.557C900.076 347.535 904.31 353.117 907.262 360.302C910.213 367.487 911.688 375.956 911.688 385.707C911.688 396.485 909.764 405.723 905.914 413.422C902.065 420.992 897.061 426.766 890.902 430.744C884.872 434.721 878.328 436.71 871.271 436.71C867.037 436.71 862.867 435.812 858.761 434.015C854.783 432.091 850.87 429.525 847.02 426.317L847.598 442.099V471.738H825.464ZM866.652 418.426C870.886 418.426 874.671 417.207 878.007 414.769C881.343 412.331 883.973 408.674 885.898 403.799C887.823 398.923 888.785 392.957 888.785 385.9C888.785 379.612 888.079 374.223 886.668 369.733C885.257 365.242 883.011 361.842 879.932 359.532C876.981 357.094 873.067 355.875 868.191 355.875C864.855 355.875 861.519 356.773 858.183 358.57C854.847 360.238 851.319 362.868 847.598 366.461V410.535C851.062 413.358 854.398 415.411 857.606 416.694C860.942 417.849 863.957 418.426 866.652 418.426ZM934.101 471.738V339.901H952.385L953.925 349.909H954.695C958.672 346.444 963.099 343.557 967.975 341.248C972.851 338.81 977.919 337.591 983.179 337.591C991.006 337.591 997.678 339.58 1003.2 343.557C1008.71 347.535 1012.95 353.117 1015.9 360.302C1018.85 367.487 1020.32 375.956 1020.32 385.707C1020.32 396.485 1018.4 405.723 1014.55 413.422C1010.7 420.992 1005.7 426.766 999.539 430.744C993.508 434.721 986.965 436.71 979.908 436.71C975.673 436.71 971.503 435.812 967.397 434.015C963.42 432.091 959.506 429.525 955.657 426.317L956.235 442.099V471.738H934.101ZM975.288 418.426C979.523 418.426 983.308 417.207 986.644 414.769C989.98 412.331 992.61 408.674 994.535 403.799C996.459 398.923 997.422 392.957 997.422 385.9C997.422 379.612 996.716 374.223 995.305 369.733C993.893 365.242 991.648 361.842 988.568 359.532C985.617 357.094 981.704 355.875 976.828 355.875C973.492 355.875 970.156 356.773 966.82 358.57C963.484 360.238 959.956 362.868 956.235 366.461V410.535C959.699 413.358 963.035 415.411 966.243 416.694C969.579 417.849 972.594 418.426 975.288 418.426ZM1042.74 434.4V339.901H1061.02L1062.56 352.796H1063.33C1067.31 348.562 1071.67 344.969 1076.42 342.018C1081.17 339.067 1086.43 337.591 1092.2 337.591C1099.26 337.591 1104.84 339.067 1108.95 342.018C1113.05 344.969 1116.2 349.139 1118.38 354.528C1122.87 349.652 1127.55 345.61 1132.43 342.403C1137.3 339.195 1142.76 337.591 1148.79 337.591C1158.79 337.591 1166.11 340.863 1170.73 347.407C1175.47 353.951 1177.85 363.189 1177.85 375.122V434.4H1155.71V378.009C1155.71 370.182 1154.56 364.664 1152.25 361.457C1149.94 358.121 1146.28 356.453 1141.28 356.453C1138.33 356.453 1135.18 357.415 1131.85 359.34C1128.64 361.264 1125.18 364.279 1121.46 368.385V434.4H1099.32V378.009C1099.32 370.182 1098.1 364.664 1095.67 361.457C1093.36 358.121 1089.7 356.453 1084.7 356.453C1078.79 356.453 1072.18 360.43 1064.87 368.385V434.4H1042.74ZM1245.36 436.71C1236.63 436.71 1228.74 434.785 1221.69 430.936C1214.63 426.958 1209.05 421.313 1204.94 413.999C1200.84 406.557 1198.78 397.64 1198.78 387.247C1198.78 376.982 1200.84 368.193 1204.94 360.879C1209.18 353.437 1214.63 347.728 1221.3 343.75C1227.97 339.644 1234.97 337.591 1242.28 337.591C1250.75 337.591 1257.87 339.516 1263.64 343.365C1269.55 347.086 1273.97 352.347 1276.92 359.147C1279.87 365.819 1281.35 373.582 1281.35 382.435C1281.35 384.488 1281.22 386.541 1280.96 388.594C1280.84 390.519 1280.64 392.058 1280.39 393.213H1215.72L1215.33 378.201H1262.3C1262.3 370.759 1260.63 364.985 1257.29 360.879C1254.08 356.773 1249.27 354.72 1242.86 354.72C1239.01 354.72 1235.29 355.811 1231.69 357.992C1228.1 360.045 1225.09 363.445 1222.65 368.193C1220.34 372.94 1219.25 379.227 1219.38 387.054C1219.63 394.753 1221.11 401.04 1223.8 405.916C1226.5 410.663 1229.96 414.128 1234.2 416.309C1238.56 418.49 1243.24 419.581 1248.25 419.581C1252.35 419.581 1256.2 419.003 1259.79 417.849C1263.51 416.694 1267.04 415.09 1270.38 413.037L1277.69 426.509C1273.33 429.589 1268.33 432.091 1262.68 434.015C1257.16 435.812 1251.39 436.71 1245.36 436.71Z" fill="#ECECEC"/>
</svg>
